<svg width="93" height="28" viewBox="0 0 93 28" fill="none" xmlns="http://www.w3.org/2000/svg">
<path d="M38.8036 16.2511H37V6.00049H38.8036V16.2511Z" fill="white"/>
<path d="M43.3557 6L46.998 11.0816L50.5527 6H52.5314V16.2506H50.6928V8.74164H50.6227L47.2431 13.509H46.5777L43.1631 8.74164H43.093V16.2506H41.377V6H43.3557Z" fill="white"/>
<path d="M55.0879 6H63.0729V7.67642H56.944V10.0513H62.425V11.7103H56.944V14.5916H63.318V16.2506H55.0879V6Z" fill="white"/>
<path d="M69.9895 6C71.5654 6 72.8963 6.59373 73.8419 7.57164C74.6999 8.4797 75.1902 9.70209 75.1902 11.134C75.1902 12.6184 74.6298 13.963 73.6667 14.871C72.7562 15.7267 71.4604 16.2506 69.9895 16.2506H65.7168V6H69.9895ZM67.5029 7.65896V14.6091H69.9194C70.9876 14.6091 71.8631 14.2249 72.441 13.6487C73.0539 13.02 73.3866 12.1643 73.3866 11.1166C73.3866 10.0863 73.0539 9.2306 72.4585 8.6194C71.8631 8.02567 71.0051 7.64149 69.9194 7.64149H67.5029V7.65896Z" fill="white"/>
<path d="M79.3251 16.2506H77.5215V6H79.3251V16.2506Z" fill="white"/>
<path d="M87.9906 6L92.5434 16.2506H90.5822L89.7241 14.3646H84.2432L83.4027 16.2506H81.459L86.0118 6H87.9906ZM84.9437 12.7231H89.0412L87.0625 7.85104H86.8523L84.9437 12.7231Z" fill="white"/>
<path d="M37.524 19.1316C37.7691 18.9569 38.1193 18.8696 38.5221 18.8696C38.9249 18.8696 39.3276 18.9569 39.7829 19.184L39.5728 19.638C39.2225 19.4634 38.8723 19.3935 38.5396 19.3935C38.2769 19.3935 38.0318 19.4284 37.8742 19.5332C37.7866 19.6031 37.7341 19.6904 37.7341 19.7952C37.7341 19.8825 37.7866 19.9349 37.8567 19.9872C37.9442 20.0571 38.0843 20.0746 38.2069 20.1095L38.8548 20.2317C39.17 20.2841 39.5027 20.3889 39.7128 20.5984C39.8529 20.7381 39.9405 20.9128 39.9405 21.1747C39.9405 21.5065 39.8004 21.751 39.5728 21.8907C39.2926 22.0828 38.8548 22.1526 38.4521 22.1526C37.9267 22.1526 37.594 22.0653 37.1562 21.8732L37.3314 21.4192C37.7341 21.5763 38.0843 21.6462 38.4345 21.6462C38.8023 21.6462 39.0649 21.6113 39.2576 21.4716C39.3451 21.4017 39.3801 21.3144 39.3801 21.1922C39.3801 21.0699 39.3276 21.0001 39.2576 20.9302C39.1525 20.8429 38.9774 20.7905 38.8023 20.7731L38.1018 20.6508C37.8217 20.5984 37.5765 20.5111 37.4189 20.354C37.2963 20.2317 37.2263 20.0571 37.2263 19.8126C37.2088 19.4983 37.3314 19.2713 37.524 19.1316Z" fill="#858986"/>
<path d="M46.6824 19.3411C46.9801 19.638 47.1552 20.0571 47.1552 20.5111C47.1552 20.9651 46.9976 21.3668 46.6999 21.6462C46.4022 21.9431 45.982 22.1351 45.4917 22.1351C45.0014 22.1351 44.5461 21.9256 44.2659 21.6113C44.0032 21.3319 43.8281 20.9302 43.8281 20.5111C43.8281 20.0746 43.9857 19.6729 44.2659 19.376C44.5636 19.0617 44.9838 18.8696 45.4917 18.8696C45.982 18.8696 46.3847 19.0443 46.6824 19.3411ZM44.6862 21.2795C44.8788 21.489 45.1765 21.6287 45.4917 21.6287C45.8069 21.6287 46.1045 21.5065 46.2972 21.2795C46.4723 21.0874 46.5948 20.808 46.5948 20.4937C46.5948 20.1619 46.4723 19.8825 46.2972 19.7078C46.087 19.4983 45.8069 19.376 45.4917 19.376C45.1765 19.376 44.8788 19.4983 44.6862 19.7253C44.4935 19.9174 44.3885 20.1968 44.3885 20.5111C44.3885 20.8254 44.4935 21.0874 44.6862 21.2795Z" fill="#858986"/>
<path d="M53.6683 22.0827H51.2168V18.9395H51.7771V21.5938H53.6683V22.0827Z" fill="#858986"/>
<path d="M59.8679 21.7684C59.6228 21.9954 59.3076 22.1351 58.9048 22.1351C58.4846 22.1351 58.1519 21.978 57.9242 21.7509C57.6791 21.5065 57.5215 21.1572 57.5215 20.773V18.9395H58.0818V20.7905C58.0818 21.035 58.1694 21.2445 58.327 21.3842C58.4671 21.5414 58.6772 21.6287 58.9048 21.6287C59.1325 21.6287 59.3426 21.5239 59.4827 21.3842C59.6228 21.2445 59.7103 21.035 59.7103 20.7905V18.9395H60.2707V20.773C60.2882 21.1572 60.1481 21.5065 59.8679 21.7684Z" fill="#858986"/>
<path d="M64.3164 18.9219H67.2232V19.4283H66.05V22.0652H65.4896V19.4283H64.3164V18.9219Z" fill="#858986"/>
<path d="M71.7928 22.0827H71.2324V18.9395H71.7928V22.0827Z" fill="#858986"/>
<path d="M78.7097 19.3411C79.0074 19.638 79.1825 20.0571 79.1825 20.5111C79.1825 20.9651 79.0249 21.3668 78.7273 21.6462C78.4296 21.9431 78.0093 22.1351 77.519 22.1351C77.0112 22.1351 76.5734 21.9256 76.2932 21.6113C76.0306 21.3319 75.8555 20.9302 75.8555 20.5111C75.8555 20.0746 76.0131 19.6729 76.2932 19.376C76.5909 19.0617 77.0112 18.8696 77.519 18.8696C77.9918 18.8696 78.4121 19.0443 78.7097 19.3411ZM76.696 21.2795C76.8886 21.489 77.1863 21.6287 77.5015 21.6287C77.8167 21.6287 78.1144 21.5065 78.307 21.2795C78.4821 21.0874 78.6047 20.808 78.6047 20.4937C78.6047 20.1619 78.4821 19.8825 78.307 19.7078C78.0969 19.4983 77.8167 19.376 77.5015 19.376C77.1863 19.376 76.8886 19.4983 76.696 19.7253C76.5034 19.9174 76.3983 20.1968 76.3983 20.5111C76.3983 20.8254 76.5209 21.0874 76.696 21.2795Z" fill="#858986"/>
<path d="M86.1509 18.9219V22.0652H85.6256L83.7694 19.8125V22.0652H83.2266V18.9219H83.7519L85.6256 21.192V18.9219H86.1509Z" fill="#858986"/>
<path d="M90.5826 19.1316C90.8277 18.9569 91.1779 18.8696 91.5807 18.8696C91.9834 18.8696 92.3862 18.9569 92.8415 19.184L92.6314 19.638C92.2811 19.4634 91.9309 19.3935 91.5982 19.3935C91.3355 19.3935 91.0904 19.4284 90.9328 19.5332C90.8452 19.6031 90.7927 19.6904 90.7927 19.7952C90.7927 19.8825 90.8452 19.9349 90.9153 19.9872C91.0028 20.0571 91.1429 20.0746 91.2655 20.1095L91.9134 20.2317C92.2286 20.2841 92.5613 20.3889 92.7714 20.5984C92.9115 20.7381 92.9991 20.9128 92.9991 21.1747C92.9991 21.5065 92.859 21.751 92.6314 21.8907C92.3512 22.0828 91.9134 22.1526 91.5107 22.1526C90.9853 22.1526 90.6526 22.0653 90.2148 21.8732L90.39 21.4192C90.7927 21.5763 91.1429 21.6462 91.4931 21.6462C91.8609 21.6462 92.1235 21.6113 92.3162 21.4716C92.4037 21.4017 92.4387 21.3144 92.4387 21.1922C92.4387 21.0699 92.3862 21.0001 92.3162 20.9302C92.2111 20.8429 92.036 20.7905 91.8609 20.7731L91.1604 20.6508C90.8803 20.5984 90.6351 20.5111 90.4775 20.354C90.3549 20.2317 90.2849 20.0571 90.2849 19.8126C90.2674 19.4983 90.39 19.2713 90.5826 19.1316Z" fill="#858986"/>
<path d="M0 6.68408L5.27709 9.65936V18.0757L0 21.1121V6.68408Z" fill="#DD8626"/>
<path d="M0 21.1116L5.27709 18.0752L7.82394 19.5425V25.6153L0 21.1116Z" fill="#D87623"/>
<path d="M19.7227 9.65936L24.9997 6.68408V21.1121L19.7227 18.0757V9.65936Z" fill="#DD8626"/>
<path d="M17.1758 19.5425L19.7226 18.0752L24.9997 21.1116L17.1758 25.6153V19.5425Z" fill="#D87623"/>
<path d="M15.3 14.6113L12.4883 16.2824V28.0001L15.3 26.4717V14.6113Z" fill="#C6491B"/>
<path d="M7.17188 2.853L12.4897 0L17.8483 2.87338L12.4897 5.93017L7.17188 2.853Z" fill="#D55E25"/>
<path d="M9.69922 12.3495L12.4906 10.6377L15.3023 12.3495L12.4906 14.0817L9.69922 12.3495Z" fill="#D55E25"/>
<path d="M9.69922 14.6113V26.4717L12.4906 28.0001L15.3023 26.4717V14.6113L12.4906 16.2824L9.69922 14.6113Z" fill="#D55E25"/>
<path d="M19.947 3.97386L12.4898 8.19223L5.15484 3.93311L0 6.68422V21.1123L7.82394 25.6159V19.5431L5.27709 18.0758V9.65949L7.88507 11.1267L12.4898 8.45715L17.0945 11.1267L19.7229 9.65949V18.0758L17.176 19.5431V25.6159L24.9999 21.1123V6.68422L19.947 3.97386Z" fill="#E1981D"/>
</svg>
