<svg width="24" height="24" viewBox="0 0 24 24" fill="none" xmlns="http://www.w3.org/2000/svg">
<path d="M18.2174 23H5.78261C3.15217 23 1 20.8478 1 18.2174V5.78261C1 3.15217 3.15217 1 5.78261 1H18.2174C20.8478 1 23 3.15217 23 5.78261V18.2174C23 20.8478 20.8478 23 18.2174 23Z" fill="url(#paint0_radial_260_6)"/>
<path d="M11.9976 5.30441C14.1976 5.30441 14.4368 5.30441 15.2976 5.35224C16.1107 5.40006 16.5411 5.54354 16.8281 5.63919C17.2107 5.78267 17.4976 5.97398 17.7846 6.26093C18.0715 6.54789 18.2628 6.83485 18.4063 7.21745C18.502 7.50441 18.6454 7.93485 18.6933 8.74789C18.6933 9.56093 18.6933 9.80006 18.6933 12.0001C18.6933 14.2001 18.6933 14.4392 18.6454 15.3001C18.5976 16.1131 18.4541 16.5435 18.3585 16.8305C18.215 17.2131 18.0237 17.5001 17.7368 17.787C17.4498 18.074 17.1628 18.2653 16.7802 18.4088C16.4933 18.5044 16.0628 18.6479 15.2498 18.6957C14.4368 18.6957 14.1976 18.6957 11.9976 18.6957C9.79762 18.6957 9.55849 18.6957 8.69762 18.6479C7.88458 18.6001 7.45414 18.4566 7.16719 18.3609C6.78458 18.2175 6.49762 18.0262 6.21067 17.7392C5.92371 17.4522 5.73241 17.1653 5.58893 16.7827C5.49327 16.4957 5.3498 16.0653 5.30197 15.2522C5.30197 14.4392 5.30197 14.2001 5.30197 12.0001C5.30197 9.80006 5.30197 9.56093 5.3498 8.70006C5.39762 7.88702 5.5411 7.45659 5.63675 7.16963C5.78023 6.78702 5.97154 6.50006 6.25849 6.21311C6.54545 5.92615 6.8324 5.73485 7.21501 5.59137C7.50197 5.49572 7.93241 5.35224 8.74545 5.30441C9.55849 5.30441 9.79762 5.30441 11.9976 5.30441ZM11.9976 3.86963C9.79762 3.86963 9.51067 3.86963 8.6498 3.91746C7.78893 3.96528 7.21501 4.10876 6.68893 4.30006C6.16284 4.49137 5.68458 4.77832 5.25414 5.25659C4.82371 5.73485 4.53675 6.16528 4.29762 6.69137C4.10632 7.21745 3.96284 7.79137 3.91501 8.65224C3.86719 9.51311 3.86719 9.80006 3.86719 12.0001C3.86719 14.2001 3.86719 14.487 3.91501 15.3479C3.96284 16.2088 4.10632 16.7827 4.29762 17.3088C4.48893 17.8348 4.77588 18.3131 5.25414 18.7435C5.68458 19.174 6.16284 19.4609 6.68893 19.7001C7.21501 19.8914 7.78893 20.0348 8.6498 20.0827C9.51067 20.1305 9.79762 20.1305 11.9976 20.1305C14.1976 20.1305 14.4846 20.1305 15.3454 20.0827C16.2063 20.0348 16.7802 19.8914 17.3063 19.7001C17.8324 19.5088 18.3107 19.2218 18.7411 18.7435C19.1715 18.3131 19.4585 17.8348 19.6976 17.3088C19.8889 16.7827 20.0324 16.2088 20.0802 15.3479C20.1281 14.487 20.1281 14.2001 20.1281 12.0001C20.1281 9.80006 20.1281 9.51311 20.0802 8.65224C20.0324 7.79137 19.8889 7.21745 19.6976 6.69137C19.5063 6.16528 19.2194 5.68702 18.7411 5.25659C18.2628 4.82615 17.8324 4.53919 17.3063 4.30006C16.7802 4.10876 16.2063 3.96528 15.3454 3.91746C14.4846 3.86963 14.1976 3.86963 11.9976 3.86963Z" fill="white"/>
<path d="M11.9997 7.69531C9.60836 7.69531 7.69531 9.60836 7.69531 11.9997C7.69531 14.391 9.60836 16.304 11.9997 16.304C14.391 16.304 16.304 14.391 16.304 11.9997C16.304 9.60836 14.391 7.69531 11.9997 7.69531ZM11.9997 14.8692C10.4214 14.8692 9.13009 13.5779 9.13009 11.9997C9.13009 10.4214 10.4214 9.13009 11.9997 9.13009C13.5779 9.13009 14.8692 10.4214 14.8692 11.9997C14.8692 13.5779 13.5779 14.8692 11.9997 14.8692Z" fill="white"/>
<path d="M16.3042 8.6523C16.8325 8.6523 17.2607 8.22405 17.2607 7.69578C17.2607 7.16751 16.8325 6.73926 16.3042 6.73926C15.7759 6.73926 15.3477 7.16751 15.3477 7.69578C15.3477 8.22405 15.7759 8.6523 16.3042 8.6523Z" fill="white"/>
<defs>
<radialGradient id="paint0_radial_260_6" cx="0" cy="0" r="1" gradientUnits="userSpaceOnUse" gradientTransform="translate(5.54775 27.4457) rotate(-49.945) scale(33.3087 22.0032)">
<stop offset="0.073" stop-color="#EACC7B"/>
<stop offset="0.184" stop-color="#ECAA59"/>
<stop offset="0.307" stop-color="#EF802E"/>
<stop offset="0.358" stop-color="#EF6D3A"/>
<stop offset="0.46" stop-color="#F04B50"/>
<stop offset="0.516" stop-color="#F03E58"/>
<stop offset="0.689" stop-color="#DB359E"/>
<stop offset="0.724" stop-color="#CE37A4"/>
<stop offset="0.789" stop-color="#AC3CB4"/>
<stop offset="0.877" stop-color="#7544CF"/>
<stop offset="0.98" stop-color="#2B4FF2"/>
</radialGradient>
</defs>
</svg>
