<svg width="24" height="24" viewBox="0 0 24 24" fill="none" xmlns="http://www.w3.org/2000/svg">
<path d="M12 21C10.7369 19.9228 9.56618 18.742 8.49999 17.4697C6.9 15.5591 5 12.7136 5 10.0021C4.99931 8.61738 5.40951 7.26352 6.17869 6.11193C6.94787 4.96033 8.04146 4.06276 9.32106 3.5328C10.6007 3.00285 12.0087 2.86433 13.3671 3.13478C14.7255 3.40522 15.973 4.07248 16.952 5.05211C17.6037 5.70084 18.1203 6.47237 18.4719 7.32204C18.8234 8.17171 19.0029 9.08265 19 10.0021C19 12.7136 17.1 15.5591 15.5 17.4697C14.4338 18.742 13.263 19.9228 12 21ZM12 7.00273C11.2043 7.00273 10.4413 7.31874 9.87867 7.88124C9.31606 8.44374 8.99999 9.20665 8.99999 10.0021C8.99999 10.7976 9.31606 11.5606 9.87867 12.1231C10.4413 12.6856 11.2043 13.0016 12 13.0016C12.7956 13.0016 13.5587 12.6856 14.1213 12.1231C14.6839 11.5606 15 10.7976 15 10.0021C15 9.20665 14.6839 8.44374 14.1213 7.88124C13.5587 7.31874 12.7956 7.00273 12 7.00273Z" fill="white"/>
</svg>
