<svg width="198" height="56" viewBox="0 0 198 56" fill="none" xmlns="http://www.w3.org/2000/svg">
<g filter="url(#filter0_d_122_1795)">
<path d="M50.9111 34.5596H49.914V37.9998H49.3008V30.666H49.914V34.0307H50.8812L53.6881 30.666H54.4609L51.4795 34.2725L54.6803 37.9998H53.9175L50.9111 34.5596Z" fill="#A4A7AB"/>
<path d="M59.0626 37.9998C59.0028 37.8286 58.9646 37.5751 58.9479 37.2393C58.7385 37.5146 58.471 37.7278 58.1453 37.879C57.8228 38.0267 57.4805 38.1006 57.1182 38.1006C56.5997 38.1006 56.1793 37.9545 55.8569 37.6624C55.5378 37.3702 55.3782 37.0008 55.3782 36.5542C55.3782 36.0237 55.5959 35.6039 56.0314 35.295C56.4701 34.986 57.08 34.8316 57.8611 34.8316H58.9429V34.212C58.9429 33.8225 58.8233 33.5169 58.584 33.2953C58.348 33.0703 58.0023 32.9578 57.547 32.9578C57.1315 32.9578 56.7875 33.0653 56.515 33.2802C56.2424 33.4951 56.1061 33.7536 56.1061 34.0559L55.5079 34.0508C55.5079 33.6176 55.7073 33.2432 56.1061 32.9276C56.505 32.6086 56.9952 32.4491 57.5769 32.4491C58.1785 32.4491 58.6521 32.6018 58.9978 32.9074C59.3468 33.2096 59.5263 33.6328 59.5362 34.1768V36.7557C59.5362 37.2829 59.5911 37.6775 59.7008 37.9394V37.9998H59.0626ZM57.188 37.5667C57.5869 37.5667 57.9425 37.4693 58.2549 37.2745C58.5707 37.0797 58.8 36.8195 58.9429 36.4938V35.295H57.876C57.2811 35.3017 56.8158 35.4125 56.4801 35.6274C56.1444 35.839 55.9765 36.1311 55.9765 36.5039C55.9765 36.8094 56.0879 37.063 56.3105 37.2644C56.5366 37.4659 56.8291 37.5667 57.188 37.5667Z" fill="#A4A7AB"/>
<path d="M64.2925 33.9904C64.2925 33.6613 64.1712 33.4078 63.9286 33.2298C63.6859 33.0518 63.3519 32.9628 62.9264 32.9628C62.5409 32.9628 62.2102 33.0636 61.9343 33.2651C61.6618 33.4632 61.5255 33.715 61.5255 34.0206H60.9322C60.9322 33.5673 61.1233 33.1929 61.5056 32.8974C61.8911 32.6018 62.3647 32.4541 62.9264 32.4541C63.5447 32.4541 64.0266 32.5884 64.3723 32.8571C64.7179 33.1257 64.8908 33.5068 64.8908 34.0005C64.8908 34.2624 64.811 34.4991 64.6515 34.7107C64.4919 34.9222 64.2593 35.0868 63.9535 35.2043C64.6448 35.3957 64.9905 35.8289 64.9905 36.5039C64.9905 36.9941 64.8027 37.382 64.4271 37.6674C64.0515 37.9528 63.553 38.0955 62.9314 38.0955C62.3298 38.0955 61.8313 37.9428 61.4358 37.6372C61.0402 37.3316 60.8425 36.932 60.8425 36.4384H61.4407C61.4407 36.7675 61.5837 37.0428 61.8695 37.2644C62.1587 37.4827 62.5126 37.5918 62.9314 37.5918C63.3868 37.5918 63.7424 37.4961 63.9984 37.3047C64.2576 37.11 64.3872 36.8464 64.3872 36.5139C64.3872 36.1479 64.2692 35.8843 64.0333 35.7231C63.7973 35.5619 63.4366 35.4813 62.9514 35.4813H62.1288V34.9575H63.0511C63.8787 34.9373 64.2925 34.615 64.2925 33.9904Z" fill="#A4A7AB"/>
<path d="M69.8515 32.5498H70.4497V37.9998H69.8515V33.5219L66.9399 37.9998H66.3466V32.5498H66.9399V37.0327L69.8515 32.5498Z" fill="#A4A7AB"/>
<path d="M76.1932 37.9998H75.5949V35.5015H72.6883V37.9998H72.09V32.5498H72.6883V34.9927H75.5949V32.5498H76.1932V37.9998Z" fill="#A4A7AB"/>
<path d="M77.4645 35.1942C77.4645 34.6704 77.5642 34.1986 77.7636 33.7788C77.9664 33.3591 78.2505 33.0334 78.6162 32.8016C78.9851 32.5666 79.4022 32.4491 79.8675 32.4491C80.5855 32.4491 81.1671 32.7043 81.6125 33.2147C82.0579 33.7217 82.2806 34.395 82.2806 35.2345V35.3605C82.2806 35.8877 82.1792 36.3628 81.9765 36.7859C81.777 37.2057 81.4945 37.5297 81.1289 37.7581C80.7633 37.9864 80.3462 38.1006 79.8775 38.1006C79.1629 38.1006 78.5813 37.8471 78.1326 37.34C77.6872 36.8296 77.4645 36.1546 77.4645 35.3151V35.1942ZM78.0628 35.3605C78.0628 36.0119 78.2289 36.5475 78.5613 36.9673C78.897 37.3836 79.3357 37.5918 79.8775 37.5918C80.416 37.5918 80.8514 37.3836 81.1837 36.9673C81.5194 36.5475 81.6873 35.9951 81.6873 35.3101V35.1942C81.6873 34.7778 81.6108 34.3967 81.458 34.0508C81.3051 33.705 81.0907 33.438 80.8148 33.2499C80.5389 33.0585 80.2232 32.9628 79.8675 32.9628C79.3357 32.9628 78.902 33.1744 78.5663 33.5975C78.2306 34.0172 78.0628 34.568 78.0628 35.2496V35.3605Z" fill="#A4A7AB"/>
<path d="M88.1736 32.9125C88.8583 32.9125 89.4133 33.1391 89.8388 33.5925C90.2642 34.0424 90.4769 34.6402 90.4769 35.3856V35.5166C90.4769 36.0102 90.3789 36.4552 90.1828 36.8514C89.99 37.2443 89.7108 37.5515 89.3452 37.7732C88.9829 37.9914 88.5658 38.1006 88.0938 38.1006C87.3825 38.1006 86.8059 37.8622 86.3638 37.3853C85.9251 36.9051 85.7057 36.2654 85.7057 35.4662V34.9827C85.7057 33.8544 85.9184 32.9528 86.3439 32.2778C86.7693 31.6028 87.3742 31.1999 88.1586 31.0689C88.6539 30.9883 89.0012 30.8792 89.2006 30.7415C89.4034 30.6038 89.5047 30.4158 89.5047 30.1774H90.0182C90.0182 30.4594 89.9601 30.6928 89.8438 30.8775C89.7274 31.0622 89.5529 31.2116 89.3203 31.3258C89.0876 31.4366 88.732 31.5306 88.2533 31.6079C87.7049 31.6952 87.2629 31.9319 86.9272 32.3181C86.5948 32.7009 86.3787 33.2147 86.279 33.8594C86.4918 33.5773 86.7577 33.349 87.0767 33.1744C87.3991 32.9998 87.7648 32.9125 88.1736 32.9125ZM86.304 35.3907V35.5166C86.304 36.1311 86.4685 36.6315 86.7975 37.0176C87.1266 37.4004 87.5587 37.5918 88.0938 37.5918C88.6322 37.5918 89.0643 37.3988 89.3901 37.0126C89.7158 36.6231 89.8786 36.1126 89.8786 35.4813V35.3504C89.8786 34.7829 89.7125 34.3195 89.3801 33.9602C89.051 33.6009 88.6189 33.4212 88.0838 33.4212C87.5487 33.4212 87.1183 33.6042 86.7926 33.9702C86.4668 34.3329 86.304 34.8064 86.304 35.3907Z" fill="#A4A7AB"/>
<path d="M93.7126 38.1006C93.2539 38.1006 92.8384 37.9864 92.4662 37.7581C92.0972 37.5297 91.8097 37.2124 91.6037 36.8061C91.3976 36.3964 91.2946 35.938 91.2946 35.431V35.2144C91.2946 34.6905 91.3943 34.2187 91.5937 33.799C91.7964 33.3792 92.0773 33.0501 92.4363 32.8117C92.7952 32.5699 93.1841 32.4491 93.6029 32.4491C94.2577 32.4491 94.7762 32.6757 95.1584 33.1291C95.544 33.579 95.7367 34.1952 95.7367 34.9776V35.3151H91.8878V35.431C91.8878 36.0488 92.0623 36.5643 92.4113 36.9773C92.7637 37.387 93.2057 37.5918 93.7375 37.5918C94.0566 37.5918 94.3374 37.5331 94.5801 37.4155C94.826 37.298 95.0487 37.11 95.2481 36.8514L95.6221 37.1385C95.1833 37.7799 94.5468 38.1006 93.7126 38.1006ZM93.6029 32.9628C93.1542 32.9628 92.7753 33.1291 92.4662 33.4615C92.1604 33.7939 91.9743 34.2406 91.9078 34.8013H95.1435V34.7359C95.1268 34.212 94.9789 33.7855 94.6997 33.4565C94.4205 33.1274 94.0549 32.9628 93.6029 32.9628Z" fill="#A4A7AB"/>
<path d="M100.059 33.9904C100.059 33.6613 99.9379 33.4078 99.6953 33.2298C99.4527 33.0518 99.1186 32.9628 98.6932 32.9628C98.3077 32.9628 97.9769 33.0636 97.7011 33.2651C97.4285 33.4632 97.2922 33.715 97.2922 34.0206H96.699C96.699 33.5673 96.8901 33.1929 97.2723 32.8974C97.6579 32.6018 98.1315 32.4541 98.6932 32.4541C99.3114 32.4541 99.7934 32.5884 100.139 32.8571C100.485 33.1257 100.658 33.5068 100.658 34.0005C100.658 34.2624 100.578 34.4991 100.418 34.7107C100.259 34.9222 100.026 35.0868 99.7202 35.2043C100.412 35.3957 100.757 35.8289 100.757 36.5039C100.757 36.9941 100.569 37.382 100.194 37.6674C99.8183 37.9528 99.3197 38.0955 98.6982 38.0955C98.0966 38.0955 97.598 37.9428 97.2025 37.6372C96.807 37.3316 96.6092 36.932 96.6092 36.4384H97.2075C97.2075 36.7675 97.3504 37.0428 97.6363 37.2644C97.9254 37.4827 98.2794 37.5918 98.6982 37.5918C99.1535 37.5918 99.5092 37.4961 99.7651 37.3047C100.024 37.11 100.154 36.8464 100.154 36.5139C100.154 36.1479 100.036 35.8843 99.8 35.7231C99.564 35.5619 99.2034 35.4813 98.7181 35.4813H97.8955V34.9575H98.8178C99.6455 34.9373 100.059 34.615 100.059 33.9904Z" fill="#A4A7AB"/>
<path d="M108.704 32.5498V37.9998H108.106V33.0686H105.897L105.803 35.1086C105.763 35.8642 105.688 36.4417 105.578 36.8413C105.469 37.2376 105.306 37.5297 105.09 37.7178C104.874 37.9058 104.586 37.9998 104.227 37.9998H103.998V37.4659L104.182 37.4558C104.525 37.4491 104.771 37.2812 104.92 36.9521C105.07 36.6231 105.168 36.0354 105.214 35.1892L105.324 32.5498H108.704Z" fill="#A4A7AB"/>
<path d="M113.854 32.5498H114.453V37.9998H113.854V33.5219L110.943 37.9998H110.35V32.5498H110.943V37.0327L113.854 32.5498Z" fill="#A4A7AB"/>
<path d="M116.691 32.5498V37.4911H119.089V32.5498H119.688V37.4911H122.066V32.5498H122.664V37.9998H116.093V32.5498H116.691Z" fill="#A4A7AB"/>
<path d="M128.303 37.9998H127.704V35.5015H124.798V37.9998H124.2V32.5498H124.798V34.9927H127.704V32.5498H128.303V37.9998Z" fill="#A4A7AB"/>
<path d="M131.992 38.1006C131.533 38.1006 131.118 37.9864 130.746 37.7581C130.377 37.5297 130.089 37.2124 129.883 36.8061C129.677 36.3964 129.574 35.938 129.574 35.431V35.2144C129.574 34.6905 129.674 34.2187 129.873 33.799C130.076 33.3792 130.357 33.0501 130.716 32.8117C131.075 32.5699 131.464 32.4491 131.882 32.4491C132.537 32.4491 133.056 32.6757 133.438 33.1291C133.823 33.579 134.016 34.1952 134.016 34.9776V35.3151H130.167V35.431C130.167 36.0488 130.342 36.5643 130.691 36.9773C131.043 37.387 131.485 37.5918 132.017 37.5918C132.336 37.5918 132.617 37.5331 132.86 37.4155C133.106 37.298 133.328 37.11 133.528 36.8514L133.902 37.1385C133.463 37.7799 132.826 38.1006 131.992 38.1006ZM131.882 32.9628C131.434 32.9628 131.055 33.1291 130.746 33.4615C130.44 33.7939 130.254 34.2406 130.187 34.8013H133.423V34.7359C133.406 34.212 133.258 33.7855 132.979 33.4565C132.7 33.1274 132.334 32.9628 131.882 32.9628Z" fill="#A4A7AB"/>
<path d="M138.538 33.0686H135.811V37.9998H135.213V32.5498H138.538V33.0686Z" fill="#A4A7AB"/>
<path d="M139.057 35.1942C139.057 34.6704 139.156 34.1986 139.356 33.7788C139.559 33.3591 139.843 33.0334 140.208 32.8016C140.577 32.5666 140.994 32.4491 141.46 32.4491C142.178 32.4491 142.759 32.7043 143.205 33.2147C143.65 33.7217 143.873 34.395 143.873 35.2345V35.3605C143.873 35.8877 143.771 36.3628 143.569 36.7859C143.369 37.2057 143.087 37.5297 142.721 37.7581C142.355 37.9864 141.938 38.1006 141.47 38.1006C140.755 38.1006 140.173 37.8471 139.725 37.34C139.279 36.8296 139.057 36.1546 139.057 35.3151V35.1942ZM139.655 35.3605C139.655 36.0119 139.821 36.5475 140.154 36.9673C140.489 37.3836 140.928 37.5918 141.47 37.5918C142.008 37.5918 142.444 37.3836 142.776 36.9673C143.112 36.5475 143.28 35.9951 143.28 35.3101V35.1942C143.28 34.7778 143.203 34.3967 143.05 34.0508C142.897 33.705 142.683 33.438 142.407 33.2499C142.131 33.0585 141.815 32.9628 141.46 32.9628C140.928 32.9628 140.494 33.1744 140.159 33.5975C139.823 34.0172 139.655 34.568 139.655 35.2496V35.3605Z" fill="#A4A7AB"/>
<path d="M148.23 32.5498V37.4911H150.628V32.5498H151.227V37.4911H153.605V32.5498H154.203V37.9998H147.632V32.5498H148.23Z" fill="#A4A7AB"/>
<path d="M157.409 37.1335L158.984 32.5498H159.627L157.324 38.9267L157.204 39.2087C156.908 39.8703 156.451 40.201 155.833 40.201C155.69 40.201 155.537 40.1775 155.375 40.1305L155.37 39.6318L155.679 39.6621C155.971 39.6621 156.207 39.5882 156.387 39.4404C156.569 39.296 156.724 39.0459 156.85 38.6899L157.115 37.9545L155.08 32.5498H155.734L157.409 37.1335Z" fill="#A4A7AB"/>
<path d="M163.541 37.1838L165.685 32.5498H166.423V37.9998H165.824V33.527L163.75 37.9998H163.327L161.213 33.4262V37.9998H160.619V32.5498H161.402L163.541 37.1838Z" fill="#A4A7AB"/>
<path d="M171.428 37.9998C171.368 37.8286 171.33 37.5751 171.314 37.2393C171.104 37.5146 170.837 37.7278 170.511 37.879C170.188 38.0267 169.846 38.1006 169.484 38.1006C168.965 38.1006 168.545 37.9545 168.222 37.6624C167.903 37.3702 167.744 37.0008 167.744 36.5542C167.744 36.0237 167.962 35.6039 168.397 35.295C168.836 34.986 169.446 34.8316 170.227 34.8316H171.309V34.212C171.309 33.8225 171.189 33.5169 170.95 33.2953C170.714 33.0703 170.368 32.9578 169.913 32.9578C169.497 32.9578 169.153 33.0653 168.881 33.2802C168.608 33.4951 168.472 33.7536 168.472 34.0559L167.874 34.0508C167.874 33.6176 168.073 33.2432 168.472 32.9276C168.871 32.6086 169.361 32.4491 169.943 32.4491C170.544 32.4491 171.018 32.6018 171.363 32.9074C171.712 33.2096 171.892 33.6328 171.902 34.1768V36.7557C171.902 37.2829 171.957 37.6775 172.066 37.9394V37.9998H171.428ZM169.554 37.5667C169.953 37.5667 170.308 37.4693 170.621 37.2745C170.936 37.0797 171.166 36.8195 171.309 36.4938V35.295H170.242C169.647 35.3017 169.181 35.4125 168.846 35.6274C168.51 35.839 168.342 36.1311 168.342 36.5039C168.342 36.8094 168.453 37.063 168.676 37.2644C168.902 37.4659 169.195 37.5667 169.554 37.5667Z" fill="#A4A7AB"/>
<path fill-rule="evenodd" clip-rule="evenodd" d="M14.8076 14.2093C15.8334 14.2476 16.8347 14.2668 17.8197 14.2668C18.1664 14.2489 18.7161 14.2226 19.4689 14.1879V12.5793H20.9949V14.1278C21.1226 14.1246 21.2284 14.1231 21.3122 14.1231C23.0543 14.1231 24.3732 14.5063 25.2687 15.268C25.6336 15.5798 25.9241 15.9479 26.1401 16.3721L23.9936 19.1872C23.9942 19.1458 23.9947 19.104 23.9947 19.0619C23.9947 17.7254 23.6894 16.7626 23.0788 16.1781C22.4642 15.5937 21.585 15.3015 20.433 15.3015C20.2254 15.3015 20.0016 15.3063 19.7573 15.3207C19.5131 15.335 19.2485 15.3638 18.9636 15.4021V22.9613C19.452 22.9708 19.9487 22.9756 20.4534 22.9756C20.6935 22.9756 20.9214 22.9614 21.1374 22.9332L20.2832 24.0534H20.2824C19.8306 24.0534 19.391 24.0678 18.9636 24.0966V25.7841L16.619 28.8591V18.1661C16.619 17.6871 16.619 17.2608 16.615 16.8775C16.6109 16.4943 16.6028 16.1446 16.5946 15.838C16.5865 15.5937 16.4928 15.4357 16.3097 15.359L14.8321 14.8129L14.8076 14.2093Z" fill="#A4A7AB"/>
<path fill-rule="evenodd" clip-rule="evenodd" d="M26.4532 16.8677C26.5948 17.3314 26.558 17.9495 26.558 18.5195C26.558 20.8188 25.5038 22.3852 23.3994 23.2188C24.6286 23.4631 25.577 24.0044 26.2446 24.8379C26.9081 25.6714 27.2419 26.7349 27.2419 28.0283C27.2419 29.9013 26.6638 31.3528 25.5038 32.3779C24.399 33.3575 22.8854 33.869 20.9593 33.9125V35.4204H19.4333V33.8724L19.3655 33.8677C18.8893 33.8341 18.3561 33.815 17.7659 33.815C16.8012 33.815 15.8121 33.8293 14.8026 33.8581L14.7578 33.2545L16.2232 32.7372C16.4226 32.6701 16.5285 32.5264 16.5447 32.3012C16.5529 31.9276 16.561 31.506 16.5651 31.0462C16.5684 30.6606 16.569 30.2421 16.5691 29.7905L18.9137 26.7156V32.5839C19.1498 32.6892 19.4266 32.7515 19.74 32.7803C20.0534 32.809 20.3384 32.8234 20.5989 32.8234C21.9177 32.8234 22.9149 32.4402 23.6029 31.6737C24.2867 30.9025 24.6286 29.7911 24.6286 28.33C24.6286 26.869 24.2826 25.7816 23.5907 25.0774C23.0079 24.4838 22.1284 24.1388 20.9522 24.0422L22.0061 22.66C22.4188 22.4933 22.7668 22.2515 23.0493 21.935C23.4345 21.5033 23.7472 20.9435 23.8839 20.263L26.4532 16.8677Z" fill="white"/>
<path fill-rule="evenodd" clip-rule="evenodd" d="M21.0004 2.5033L36.1903 24.0592L21.0004 45.6154L5.81055 24.0592L21.0004 2.5033ZM21.0004 3.70984L6.66075 24.0592L21.0004 44.4089L35.3401 24.0592L28.1014 13.787L21.0004 3.70984Z" fill="#A4A7AB"/>
<path fill-rule="evenodd" clip-rule="evenodd" d="M21.0001 0L38 23.9999L21.0001 48L4 23.9999L12.4331 12.0943L21.0001 0ZM21.0001 1.18464L4.83913 23.9999L21.0001 46.8153L37.1609 23.9999L21.0001 1.18464Z" fill="white"/>
<path fill-rule="evenodd" clip-rule="evenodd" d="M48 23.7044V23.1811C48.4388 23.0685 48.7301 22.9448 48.8775 22.803C49.0252 22.6649 49.1222 22.4688 49.1654 22.2144C49.2122 21.9599 49.2338 21.5674 49.2338 21.0441V11.8312C49.2338 11.344 49.2157 10.9843 49.1835 10.7626C49.1474 10.5373 49.0898 10.3665 49.0071 10.2393C48.928 10.1158 48.8201 10.0177 48.6871 9.9413C48.5538 9.86866 48.3237 9.7849 48 9.69415V9.17081H53.7662C54.885 9.17081 55.7806 9.29077 56.4606 9.53422C57.1368 9.77401 57.6404 10.1302 57.9714 10.6028C58.3024 11.0753 58.4678 11.6821 58.4678 12.4271C58.4678 13.0449 58.349 13.5829 58.1154 14.0371C57.8779 14.4915 57.5721 14.8658 57.1908 15.1638C56.8131 15.4618 56.3239 15.7417 55.7267 15.996V16.0905C56.6836 16.3813 57.4067 16.832 57.8995 17.4389C58.3888 18.0458 58.6369 18.769 58.6369 19.6049C58.6369 20.5716 58.4246 21.3604 57.9966 21.9673C57.5721 22.5779 56.9786 23.0211 56.2124 23.2936C55.4462 23.5663 54.5181 23.7044 53.4281 23.7044H48ZM53.0505 15.6872C54.1188 15.6872 54.9353 15.4254 55.5001 14.9057C56.0648 14.3824 56.3491 13.6265 56.3491 12.6307C56.3491 12.14 56.2699 11.7367 56.1116 11.4132C55.9533 11.0896 55.734 10.8316 55.4569 10.639C55.1799 10.4465 54.8526 10.3119 54.4713 10.2284C54.0936 10.1483 53.6836 10.1084 53.2411 10.1084C52.9712 10.1084 52.6223 10.1158 52.187 10.1302C51.7482 10.1448 51.4245 10.1557 51.205 10.1702V15.6872H53.0505ZM51.205 22.6942C51.7195 22.7413 52.2915 22.7668 52.9246 22.7668C53.8453 22.7668 54.5576 22.6505 55.0685 22.4142C55.5757 22.1817 55.9462 21.8364 56.1728 21.3785C56.4031 20.9206 56.5182 20.3462 56.5182 19.6595C56.5182 18.9688 56.3923 18.402 56.144 17.9549C55.8923 17.5078 55.5072 17.1736 54.9893 16.9555C54.4678 16.7338 53.7518 16.6248 52.8382 16.6248H51.205V22.6942ZM65.9502 18.9254H61.0578V17.2716H65.9502V18.9254ZM78.0691 9.4797V12.4271H77.026C76.857 11.8093 76.641 11.3187 76.3821 10.9553C76.123 10.5881 75.8209 10.3265 75.4755 10.1702C75.1302 10.014 74.7165 9.9376 74.2309 9.9376C73.508 9.9376 72.8639 10.1811 72.2992 10.6682C71.7344 11.1516 71.2883 11.8857 70.9646 12.8597C70.6409 13.8373 70.479 15.0148 70.479 16.3994C70.479 17.7914 70.6157 18.9797 70.8819 19.9611C71.1481 20.9459 71.5402 21.6874 72.0617 22.1889C72.5797 22.6867 73.2201 22.9376 73.9791 22.9376C74.5546 22.9376 75.0259 22.854 75.3928 22.6867C75.7562 22.5196 76.0656 22.2579 76.3137 21.8944C76.562 21.5312 76.7993 21.0005 77.026 20.2954H78.0691V23.341C77.4073 23.519 76.731 23.6536 76.0403 23.7408C75.3461 23.8316 74.5869 23.8752 73.7561 23.8752C71.9719 23.8752 70.6228 23.2646 69.7129 22.0436C68.7991 20.8224 68.3422 19.0015 68.3422 16.5811C68.3422 15.062 68.5797 13.7319 69.0509 12.5871C69.5257 11.4459 70.2236 10.5628 71.1444 9.9376C72.0654 9.31259 73.1625 9 74.4431 9C75.0834 9 75.6735 9.03272 76.213 9.10169C76.7561 9.16711 77.3713 9.29428 78.0691 9.4797ZM83.7059 22.7232H86.4686C86.7707 22.7232 87.0225 22.7086 87.2276 22.6723C87.429 22.6359 87.6052 22.5814 87.7492 22.505C87.8931 22.4324 88.0226 22.3307 88.1377 22.1961C88.2528 22.0652 88.3644 21.8944 88.4687 21.6802C88.5765 21.4693 88.6736 21.2003 88.7708 20.877C88.8643 20.5534 88.983 20.07 89.1234 19.4232H90.1881L89.9759 23.7044H80.5009V23.1811C80.9397 23.0685 81.2309 22.9448 81.3784 22.803C81.5261 22.6649 81.6231 22.4688 81.6663 22.2144C81.7131 21.9599 81.7347 21.5674 81.7347 21.0441V11.8312C81.7347 11.344 81.7166 10.9843 81.6843 10.7626C81.6483 10.5373 81.5907 10.3665 81.508 10.2393C81.4289 10.1158 81.321 10.0177 81.188 9.9413C81.0547 9.86866 80.8246 9.7849 80.5009 9.69415V9.17081H84.9398V9.69415C84.6304 9.77772 84.4111 9.85408 84.2815 9.92321C84.152 9.98847 84.044 10.0794 83.9576 10.192C83.875 10.3048 83.8102 10.4791 83.7706 10.7153C83.7275 10.948 83.7059 11.3224 83.7059 11.8312V22.7232ZM102.098 18.6782C102.098 19.4522 102.027 20.1211 101.886 20.6806C101.753 21.2112 101.555 21.6837 101.286 22.098C101.041 22.4651 100.735 22.7812 100.368 23.0393C100.005 23.2973 99.5625 23.5009 99.041 23.6499C98.523 23.7989 97.9113 23.8752 97.21 23.8752C96.3573 23.8752 95.6307 23.7771 95.0229 23.5881C94.4148 23.3955 93.9113 23.0829 93.5155 22.6431C93.1163 22.207 92.8321 21.6946 92.6559 21.1023C92.4795 20.5098 92.3932 19.7539 92.3932 18.8381V11.8312C92.3932 11.2788 92.3752 10.9044 92.3393 10.7081C92.3033 10.5155 92.253 10.3593 92.1882 10.2465C92.1198 10.1339 92.0228 10.0358 91.8967 9.95221C91.7708 9.87219 91.5336 9.7849 91.1917 9.69415V9.17081H95.6164V9.69415C95.2243 9.79232 94.9509 9.9049 94.7962 10.0286C94.6415 10.1521 94.5336 10.3375 94.4796 10.5881C94.4222 10.8353 94.3933 11.2496 94.3933 11.8312V19.3723C94.3933 20.0591 94.4652 20.637 94.6092 21.1058C94.753 21.5746 94.9581 21.938 95.217 22.1961C95.4761 22.4579 95.7855 22.6468 96.1452 22.7631C96.5013 22.8794 96.9474 22.9376 97.4833 22.9376C97.9726 22.9376 98.4077 22.8503 98.7782 22.6758C99.1524 22.5015 99.4618 22.2397 99.7099 21.8837C99.9617 21.5274 100.131 21.0914 100.221 20.5753C100.314 20.0556 100.361 19.3614 100.361 18.4856V11.8312C100.361 11.2133 100.329 10.7917 100.271 10.5663C100.21 10.3375 100.113 10.163 99.9762 10.043C99.8358 9.92321 99.5553 9.80672 99.1272 9.69415V9.17081H103.332V9.69415C102.922 9.7995 102.645 9.91579 102.494 10.043C102.343 10.1702 102.239 10.3556 102.181 10.599C102.127 10.839 102.098 11.2496 102.098 11.8312V18.6782ZM105.502 23.7044V23.1811C105.94 23.0685 106.232 22.9448 106.379 22.803C106.527 22.6649 106.624 22.4688 106.667 22.2144C106.714 21.9599 106.735 21.5674 106.735 21.0441V11.8312C106.735 11.344 106.717 10.9843 106.685 10.7626C106.649 10.5373 106.591 10.3665 106.509 10.2393C106.43 10.1158 106.322 10.0177 106.189 9.9413C106.056 9.86866 105.825 9.7849 105.502 9.69415V9.17081H111.268C112.387 9.17081 113.282 9.29077 113.962 9.53422C114.638 9.77401 115.142 10.1302 115.473 10.6028C115.804 11.0753 115.969 11.6821 115.969 12.4271C115.969 13.0449 115.851 13.5829 115.617 14.0371C115.38 14.4915 115.074 14.8658 114.692 15.1638C114.315 15.4618 113.826 15.7417 113.228 15.996V16.0905C114.185 16.3813 114.908 16.832 115.401 17.4389C115.89 18.0458 116.139 18.769 116.139 19.6049C116.139 20.5716 115.926 21.3604 115.498 21.9673C115.074 22.5779 114.48 23.0211 113.714 23.2936C112.948 23.5663 112.02 23.7044 110.93 23.7044H105.502ZM110.552 15.6872C111.62 15.6872 112.437 15.4254 113.002 14.9057C113.566 14.3824 113.851 13.6265 113.851 12.6307C113.851 12.14 113.772 11.7367 113.613 11.4132C113.455 11.0896 113.236 10.8316 112.959 10.639C112.682 10.4465 112.354 10.3119 111.973 10.2284C111.595 10.1483 111.185 10.1084 110.743 10.1084C110.473 10.1084 110.124 10.1158 109.689 10.1302C109.25 10.1448 108.926 10.1557 108.707 10.1702V15.6872H110.552ZM108.707 22.6942C109.221 22.7413 109.793 22.7668 110.426 22.7668C111.347 22.7668 112.059 22.6505 112.57 22.4142C113.077 22.1817 113.448 21.8364 113.674 21.3785C113.905 20.9206 114.02 20.3462 114.02 19.6595C114.02 18.9688 113.894 18.402 113.646 17.9549C113.394 17.5078 113.009 17.1736 112.491 16.9555C111.969 16.7338 111.253 16.6248 110.34 16.6248H108.707V22.6942Z" fill="white"/>
<path fill-rule="evenodd" clip-rule="evenodd" d="M133.969 9.4797V12.4271H132.926C132.757 11.8093 132.541 11.3187 132.282 10.9553C132.023 10.5881 131.721 10.3265 131.375 10.1702C131.03 10.014 130.616 9.9376 130.131 9.9376C129.408 9.9376 128.764 10.1811 128.199 10.6682C127.634 11.1516 127.188 11.8857 126.865 12.8597C126.541 13.8373 126.379 15.0148 126.379 16.3994C126.379 17.7914 126.516 18.9797 126.782 19.9611C127.048 20.9459 127.44 21.6874 127.962 22.1889C128.48 22.6867 129.12 22.9376 129.879 22.9376C130.455 22.9376 130.926 22.854 131.293 22.6867C131.656 22.5196 131.966 22.2579 132.214 21.8944C132.462 21.5312 132.699 21.0005 132.926 20.2954H133.969V23.341C133.307 23.519 132.631 23.6536 131.94 23.7408C131.246 23.8316 130.487 23.8752 129.656 23.8752C127.872 23.8752 126.523 23.2646 125.613 22.0436C124.699 20.8224 124.242 19.0015 124.242 16.5811C124.242 15.062 124.48 13.7319 124.951 12.5871C125.426 11.4459 126.124 10.5628 127.044 9.9376C127.965 9.31259 129.062 9 130.343 9C130.983 9 131.573 9.03272 132.113 9.10169C132.656 9.16711 133.271 9.29428 133.969 9.4797ZM143.516 23.7044V23.1811C143.869 23.1119 144.128 23.0321 144.3 22.9485C144.473 22.8649 144.602 22.745 144.685 22.5923C144.772 22.4396 144.811 22.236 144.811 21.9781C144.811 21.7382 144.786 21.4766 144.728 21.1968C144.671 20.9169 144.592 20.6008 144.487 20.2555L144.095 18.8817H139.185L138.825 19.9247C138.645 20.4481 138.523 20.8479 138.469 21.1167C138.412 21.3857 138.383 21.6329 138.383 21.851C138.383 22.2762 138.491 22.5886 138.707 22.7886C138.919 22.9884 139.25 23.1193 139.692 23.1811V23.7044H135.192V23.1811C135.584 23.1193 135.926 22.8867 136.217 22.4906C136.509 22.0944 136.793 21.5238 137.066 20.786L141.462 9H143.128L146.71 20.8733C146.879 21.4256 147.027 21.8473 147.156 22.1381C147.286 22.4287 147.444 22.6577 147.628 22.8213C147.807 22.9848 148.059 23.1047 148.376 23.1811V23.7044H143.516ZM139.469 17.9549H143.876L141.872 11.0861L139.469 17.9549ZM150.491 20.3936C150.631 21.0187 150.822 21.5093 151.06 21.8728C151.3 22.236 151.61 22.5015 151.988 22.6758C152.369 22.8503 152.854 22.9376 153.452 22.9376C154.275 22.9376 154.905 22.7195 155.344 22.2871C155.783 21.8545 156.002 21.2221 156.002 20.3936C156.002 19.8593 155.912 19.4123 155.729 19.0525C155.545 18.6891 155.247 18.3475 154.833 18.0277C154.419 17.7114 153.786 17.337 152.937 16.9119C152.113 16.5013 151.466 16.0977 150.988 15.7016C150.509 15.3091 150.153 14.8803 149.916 14.4188C149.682 13.9572 149.563 13.4557 149.563 12.9069C149.563 12.111 149.75 11.4241 150.117 10.8353C150.488 10.2502 151.027 9.7995 151.739 9.4797C152.455 9.15989 153.272 9 154.189 9C154.725 9 155.247 9.02901 155.754 9.08725C156.265 9.14178 156.901 9.26895 157.668 9.4688V12.3436H156.624C156.463 11.7184 156.261 11.2315 156.013 10.8861C155.768 10.5373 155.481 10.2938 155.15 10.1557C154.819 10.0177 154.391 9.94853 153.865 9.94853C153.409 9.94853 152.998 10.0321 152.635 10.2029C152.275 10.3737 151.988 10.6318 151.779 10.9771C151.567 11.3187 151.462 11.7293 151.462 12.2055C151.462 12.7107 151.552 13.1359 151.729 13.481C151.908 13.8301 152.189 14.1534 152.567 14.4513C152.948 14.7495 153.509 15.0838 154.254 15.4509C155.153 15.9051 155.851 16.3305 156.347 16.7192C156.84 17.1117 157.229 17.5552 157.506 18.0567C157.783 18.5545 157.923 19.1396 157.923 19.8084C157.923 20.5534 157.804 21.1822 157.574 21.6983C157.34 22.2107 157.02 22.6322 156.61 22.952C156.2 23.2755 155.707 23.5118 155.135 23.6571C154.56 23.8026 153.934 23.8752 153.254 23.8752C152.149 23.8752 150.88 23.6863 149.437 23.312V20.3936H150.491ZM163.455 21.0441C163.455 21.5166 163.47 21.8654 163.502 22.0871C163.535 22.3052 163.589 22.4797 163.661 22.6069C163.736 22.7341 163.844 22.8431 163.988 22.9267C164.132 23.014 164.366 23.0975 164.689 23.1811V23.7044H160.24V23.1811C160.678 23.0685 160.97 22.9448 161.117 22.803C161.265 22.6649 161.362 22.4688 161.405 22.2144C161.452 21.9599 161.473 21.5674 161.473 21.0441V11.8312C161.473 11.344 161.455 10.9843 161.423 10.7626C161.387 10.5373 161.329 10.3665 161.247 10.2393C161.168 10.1158 161.06 10.0177 160.927 9.9413C160.794 9.86866 160.563 9.7849 160.24 9.69415V9.17081H164.689V9.69415C164.38 9.7705 164.157 9.85036 164.02 9.92672C163.884 10.0031 163.772 10.1012 163.693 10.2212C163.61 10.3375 163.553 10.5118 163.513 10.748C163.474 10.9808 163.455 11.344 163.455 11.8312V21.0441ZM175.701 17.9439C175.952 18.3693 176.165 18.7437 176.337 19.0635C176.51 19.3833 176.686 19.7393 176.87 20.1392H177.006C176.974 19.7031 176.941 18.8453 176.913 17.5552C176.884 16.2685 176.87 15.1056 176.87 14.0698V11.8312C176.87 11.344 176.855 10.9843 176.83 10.7555C176.801 10.5301 176.751 10.3556 176.675 10.2356C176.603 10.1158 176.499 10.0177 176.369 9.9413C176.24 9.86866 176.013 9.7849 175.69 9.69415V9.17081H179.485V9.69415C179.168 9.77772 178.945 9.85407 178.816 9.92672C178.686 9.99936 178.578 10.0903 178.499 10.2029C178.416 10.3156 178.355 10.4865 178.316 10.7153C178.272 10.9407 178.251 11.315 178.251 11.8312V23.7699H176.934L171.064 13.8227C170.697 13.2048 170.438 12.7542 170.283 12.4708C170.128 12.1874 169.985 11.9075 169.851 11.6313H169.672C169.722 12.1764 169.758 13.1649 169.779 14.5968C169.797 16.0251 169.808 17.4498 169.808 18.8708V21.0441C169.808 21.5166 169.826 21.8654 169.859 22.0871C169.887 22.3052 169.941 22.4797 170.017 22.6069C170.089 22.7341 170.197 22.8431 170.341 22.9267C170.484 23.014 170.718 23.0975 171.042 23.1811V23.7044H167.197V23.1811C167.632 23.0685 167.923 22.9448 168.071 22.803C168.218 22.6649 168.315 22.4688 168.362 22.2144C168.405 21.9599 168.431 21.5674 168.431 21.0441V11.8312C168.431 11.344 168.412 10.9843 168.377 10.7626C168.341 10.5373 168.283 10.3665 168.204 10.2393C168.121 10.1158 168.013 10.0177 167.88 9.9413C167.747 9.86866 167.52 9.7849 167.197 9.69415V9.17081H170.495L175.701 17.9439ZM187.546 23.8752C186.704 23.8752 185.935 23.7334 185.244 23.4536C184.55 23.1738 183.956 22.7378 183.463 22.1453C182.967 21.5528 182.585 20.7934 182.312 19.8702C182.042 18.947 181.909 17.846 181.909 16.5594C181.909 14.9784 182.147 13.6191 182.625 12.4817C183.103 11.3477 183.787 10.4827 184.676 9.89044C185.564 9.29798 186.593 9 187.769 9C189.017 9 190.071 9.27988 190.924 9.83592C191.777 10.392 192.42 11.2133 192.852 12.2962C193.284 13.3794 193.5 14.695 193.5 16.2504C193.5 17.9112 193.255 19.3142 192.762 20.4553C192.273 21.6002 191.579 22.4542 190.683 23.0211C189.787 23.5918 188.74 23.8752 187.546 23.8752ZM184.078 16.2613C184.078 18.442 184.395 20.0992 185.021 21.233C185.65 22.3706 186.571 22.9376 187.776 22.9376C188.543 22.9376 189.194 22.6904 189.726 22.1961C190.262 21.7055 190.661 20.9823 190.927 20.0301C191.197 19.0816 191.33 17.9694 191.33 16.6974C191.33 15.1492 191.172 13.8663 190.859 12.8488C190.546 11.8312 190.122 11.0897 189.579 10.6282C189.039 10.1667 188.409 9.9376 187.694 9.9376C187.061 9.9376 186.517 10.0866 186.064 10.3846C185.611 10.6826 185.237 11.108 184.938 11.6566C184.64 12.2055 184.42 12.8706 184.284 13.6518C184.147 14.4332 184.078 15.3019 184.078 16.2613Z" fill="#A4A7AB"/>
</g>
<defs>
<filter id="filter0_d_122_1795" x="0" y="0" width="202" height="57" filterUnits="userSpaceOnUse" color-interpolation-filters="sRGB">
<feFlood flood-opacity="0" result="BackgroundImageFix"/>
<feColorMatrix in="SourceAlpha" type="matrix" values="0 0 0 0 0 0 0 0 0 0 0 0 0 0 0 0 0 0 127 0" result="hardAlpha"/>
<feOffset dy="4"/>
<feGaussianBlur stdDeviation="2"/>
<feComposite in2="hardAlpha" operator="out"/>
<feColorMatrix type="matrix" values="0 0 0 0 0 0 0 0 0 0 0 0 0 0 0 0 0 0 0.25 0"/>
<feBlend mode="normal" in2="BackgroundImageFix" result="effect1_dropShadow_122_1795"/>
<feBlend mode="normal" in="SourceGraphic" in2="effect1_dropShadow_122_1795" result="shape"/>
</filter>
</defs>
</svg>
