<svg width="27" height="50" viewBox="0 0 27 50" fill="none" xmlns="http://www.w3.org/2000/svg">
<path opacity="0.3" fill-rule="evenodd" clip-rule="evenodd" d="M0.203125 4.25405C2.40547 4.33567 4.55533 4.37646 6.67033 4.37646C7.41454 4.33826 8.59479 4.28238 10.2112 4.20841V0.783569H13.4875V4.08048C13.7617 4.07374 13.9889 4.07051 14.1688 4.07051C17.9093 4.07051 20.7409 4.88639 22.6636 6.50814C23.4471 7.17201 24.0709 7.95574 24.5346 8.859L19.9259 14.8528C19.9273 14.7646 19.9283 14.6757 19.9283 14.5861C19.9283 11.7405 19.2729 9.69035 17.9619 8.44601C16.6423 7.20172 14.7545 6.57955 12.2812 6.57955C11.8355 6.57955 11.3549 6.58975 10.8305 6.62031C10.3061 6.65092 9.73805 6.71209 9.12626 6.79371V22.8884C10.175 22.9087 11.2413 22.919 12.3249 22.919C12.8404 22.919 13.3299 22.8888 13.7935 22.8286L11.9595 25.2138H11.9578C10.9878 25.2138 10.0439 25.2444 9.12626 25.3056V28.8987L4.0923 35.4459V12.6788C4.0923 11.6588 4.09231 10.7511 4.08364 9.9351C4.07493 9.11915 4.05738 8.37463 4.03994 7.72184C4.02245 7.20172 3.82138 6.86516 3.42814 6.70193L0.255708 5.53919L0.203125 4.25405Z" fill="#A4A7AB"/>
<path opacity="0.3" fill-rule="evenodd" clip-rule="evenodd" d="M25.2083 9.91382C25.5123 10.9013 25.4333 12.2171 25.4333 13.4308C25.4333 18.3264 23.1699 21.6616 18.6516 23.4363C21.2908 23.9565 23.3271 25.1091 24.7605 26.8838C26.185 28.6585 26.9016 30.9227 26.9016 33.6766C26.9016 37.6645 25.6606 40.755 23.1699 42.9376C20.798 45.0235 17.548 46.1126 13.4125 46.2051V49.4157H10.1362V46.1196L9.99072 46.1097C8.96822 46.0382 7.82337 45.9974 6.55609 45.9974C4.4849 45.9974 2.36119 46.028 0.193777 46.0892L0.0976562 44.8041L3.24384 43.7026C3.6721 43.5598 3.89933 43.2538 3.93429 42.7744C3.95174 41.9789 3.96929 41.0813 3.97799 40.1022C3.98516 39.2812 3.98648 38.3901 3.98661 37.4287L9.02063 30.8817V43.3762C9.52753 43.6006 10.1218 43.7331 10.7948 43.7944C11.4677 43.8556 12.0795 43.8862 12.6388 43.8862C15.4704 43.8862 17.6115 43.0702 19.0886 41.4383C20.5568 39.7962 21.2908 37.43 21.2908 34.3191C21.2908 31.2083 20.548 28.893 19.0623 27.3937C17.8112 26.1299 15.9227 25.3952 13.3973 25.1895L15.6601 22.2466C16.5462 21.8918 17.2934 21.377 17.9 20.7029C18.7269 19.7839 19.3984 18.592 19.6918 17.1431L25.2083 9.91382Z" fill="white"/>
</svg>
