<svg width="73" height="103" viewBox="0 0 73 103" fill="none" xmlns="http://www.w3.org/2000/svg">
<path opacity="0.3" fill-rule="evenodd" clip-rule="evenodd" d="M23.2031 30.254C25.4055 30.3357 27.5553 30.3765 29.6703 30.3765C30.4145 30.3383 31.5948 30.2824 33.2112 30.2084V26.7836H36.4875V30.0805C36.7617 30.0737 36.9889 30.0705 37.1688 30.0705C40.9093 30.0705 43.7409 30.8864 45.6636 32.5081C46.4471 33.172 47.0709 33.9557 47.5346 34.859L42.9259 40.8528C42.9273 40.7646 42.9283 40.6757 42.9283 40.5861C42.9283 37.7405 42.2729 35.6904 40.9619 34.446C39.6423 33.2017 37.7545 32.5795 35.2812 32.5795C34.8355 32.5795 34.3549 32.5898 33.8305 32.6203C33.3061 32.6509 32.738 32.7121 32.1263 32.7937V48.8884C33.175 48.9087 34.2413 48.919 35.3249 48.919C35.8404 48.919 36.3299 48.8888 36.7935 48.8286L34.9595 51.2138H34.9578C33.9878 51.2138 33.0439 51.2444 32.1263 51.3056V54.8987L27.0923 61.4459V38.6788C27.0923 37.6588 27.0923 36.7511 27.0836 35.9351C27.0749 35.1191 27.0574 34.3746 27.0399 33.7218C27.0225 33.2017 26.8214 32.8652 26.4281 32.7019L23.2557 31.5392L23.2031 30.254Z" fill="#A4A7AB"/>
<path opacity="0.3" fill-rule="evenodd" clip-rule="evenodd" d="M48.2083 35.9138C48.5123 36.9013 48.4333 38.2171 48.4333 39.4308C48.4333 44.3264 46.1699 47.6616 41.6516 49.4363C44.2908 49.9565 46.3271 51.1091 47.7605 52.8838C49.185 54.6585 49.9016 56.9227 49.9016 59.6766C49.9016 63.6645 48.6606 66.755 46.1699 68.9376C43.798 71.0235 40.548 72.1126 36.4125 72.2051V75.4157H33.1362V72.1196L32.9907 72.1097C31.9682 72.0382 30.8234 71.9974 29.5561 71.9974C27.4849 71.9974 25.3612 72.028 23.1938 72.0892L23.0977 70.8041L26.2438 69.7026C26.6721 69.5598 26.8993 69.2538 26.9343 68.7744C26.9517 67.9789 26.9693 67.0813 26.978 66.1022C26.9852 65.2812 26.9865 64.3901 26.9866 63.4287L32.0206 56.8817V69.3762C32.5275 69.6006 33.1218 69.7331 33.7948 69.7944C34.4677 69.8556 35.0795 69.8862 35.6388 69.8862C38.4704 69.8862 40.6115 69.0702 42.0886 67.4383C43.5568 65.7962 44.2908 63.43 44.2908 60.3191C44.2908 57.2083 43.548 54.893 42.0623 53.3937C40.8112 52.1299 38.9227 51.3952 36.3973 51.1895L38.6601 48.2466C39.5462 47.8918 40.2934 47.377 40.9 46.7029C41.7269 45.7839 42.3984 44.592 42.6918 43.1431L48.2083 35.9138Z" fill="white"/>
<path fill-rule="evenodd" clip-rule="evenodd" d="M36.5003 5.32996L69.1139 51.2261L36.5003 97.1228L3.88672 51.2261L36.5003 5.32996ZM36.5003 7.89888L5.71216 51.2261L36.5003 94.5539L67.2885 51.2261L51.7464 29.3548L36.5003 7.89888Z" fill="url(#paint0_radial_221_1206)"/>
<path fill-rule="evenodd" clip-rule="evenodd" d="M36.5003 0L73 51.0998L36.5003 102.2L0 51.0998L18.1064 25.7508L36.5003 0ZM36.5003 2.5223L1.80166 51.0998L36.5002 99.6777L71.1983 51.0998L36.5003 2.5223Z" fill="url(#paint1_radial_221_1206)"/>
<defs>
<radialGradient id="paint0_radial_221_1206" cx="0" cy="0" r="1" gradientUnits="userSpaceOnUse" gradientTransform="translate(69 51) rotate(-180) scale(61.5 43.7014)">
<stop stop-color="#A4A7AB"/>
<stop offset="1" stop-color="#A4A7AB" stop-opacity="0"/>
</radialGradient>
<radialGradient id="paint1_radial_221_1206" cx="0" cy="0" r="1" gradientUnits="userSpaceOnUse" gradientTransform="translate(73 51) rotate(180) scale(73 52.1429)">
<stop stop-color="white"/>
<stop offset="1" stop-color="white" stop-opacity="0"/>
</radialGradient>
</defs>
</svg>
