<svg width="24" height="24" viewBox="0 0 24 24" fill="none" xmlns="http://www.w3.org/2000/svg">
<rect x="4.57227" y="2.85693" width="15.4286" height="15.4286" fill="white"/>
<path d="M21.1462 18.4976C20.0702 19.4498 18.5107 20.1327 16.4678 20.5463C14.425 20.96 12.3197 21.081 10.152 20.9093L6.03509 24V20.1366C4.67836 19.7151 3.61793 19.1688 2.8538 18.4976C1.94932 17.7015 1.24756 16.558 0.748538 15.0673C0.249513 13.5766 0 12.0546 0 10.5015C0 8.94829 0.249513 7.42634 0.748538 5.93561C1.24756 4.44488 1.95322 3.29756 2.8655 2.49366C3.77778 1.68976 5.08382 1.07317 6.78363 0.643902C8.48343 0.214634 10.2222 0 12 0C13.7778 0 15.5166 0.214634 17.2164 0.643902C18.9162 1.07317 20.2222 1.68976 21.1345 2.49366C22.0468 3.29756 22.7524 4.44488 23.2515 5.93561C23.7505 7.42634 24 8.94829 24 10.5015C24 12.0546 23.7505 13.5766 23.2515 15.0673C22.7524 16.558 22.0507 17.7015 21.1462 18.4976ZM14.9474 12.761L16.4678 13.0185C16.3431 11.1454 15.6218 9.54537 14.3041 8.21854C12.9864 6.89171 11.3918 6.16585 9.52047 6.04098L9.77778 7.56293C11.1189 7.73463 12.2729 8.30439 13.2398 9.27219C14.2066 10.24 14.7758 11.4029 14.9474 12.761ZM10.0351 9.13171L10.3158 10.8176C10.9396 11.1298 11.3996 11.5902 11.6959 12.199L13.3801 12.48C13.193 11.6527 12.7953 10.9385 12.1871 10.3376C11.5789 9.73659 10.8616 9.33463 10.0351 9.13171ZM7.53216 10.5132V9.01463C7.53216 8.74927 7.4347 8.4839 7.23977 8.21854C7.04483 7.95317 6.83821 7.76195 6.61988 7.64488C6.40156 7.5278 6.23782 7.5161 6.12865 7.60976L5.05263 8.71024C4.44444 9.31902 4.35478 10.2673 4.78363 11.5551C5.21248 12.8429 6.03119 14.0917 7.23977 15.3015C8.44834 16.5112 9.69591 17.3307 10.9825 17.76C12.269 18.1893 13.2086 18.0995 13.8012 17.4907L14.9006 16.3902C15.0097 16.2966 15.0058 16.1366 14.8889 15.9102C14.7719 15.6839 14.5809 15.4771 14.3158 15.2898C14.0507 15.1024 13.7856 15.0088 13.5205 15.0088H12.0234L11.1579 15.758C10.4717 15.5707 9.61793 14.9659 8.59649 13.9434C7.57505 12.921 6.97076 12.0585 6.78363 11.3561L7.53216 10.5132ZM9.02924 3.02049L9.26316 4.54244C10.8226 4.57366 12.2651 4.98341 13.5906 5.77171C14.9162 6.56 15.9688 7.61366 16.7485 8.93268C17.5283 10.2517 17.9415 11.6917 17.9883 13.2527L19.5088 13.5102C19.5088 12.0898 19.232 10.7317 18.6784 9.4361C18.1248 8.14049 17.3801 7.02439 16.4444 6.0878C15.5088 5.15122 14.3938 4.40585 13.0994 3.85171C11.8051 3.29756 10.4483 3.02049 9.02924 3.02049Z" fill="#840ACE"/>
</svg>
