<svg width="24" height="24" viewBox="0 0 24 24" fill="none" xmlns="http://www.w3.org/2000/svg">
<path d="M5.41751 21.5982L5.86887 21.8179C7.7498 22.9161 9.85625 23.4286 11.9628 23.4286C18.5833 23.4286 24 18.1571 24 11.7143C24 8.63932 22.721 5.63752 20.4641 3.44106C18.2071 1.24459 15.1977 0 11.9628 0C5.34234 0 -0.0745051 5.27142 0.000775285 11.7875C0.000775285 13.9839 0.677867 16.1072 1.80632 17.9375L2.10722 18.3768L0.9036 22.6965L5.41751 21.5982Z" fill="#00E676"/>
<path d="M17.1329 14.2206L17.8522 14.5438C17.983 14.6084 18.0485 14.6731 18.0485 14.6731V15.1256L18.0482 15.1269C17.9828 15.4496 17.9175 15.7723 17.7869 16.0304C17.7215 16.1598 17.5907 16.289 17.4599 16.4183C17.3291 16.5476 17.1983 16.6122 17.0675 16.7414L16.9367 16.8708C16.8059 17.0001 16.6751 17.0001 16.479 17.1293C16.2173 17.2586 15.825 17.3879 15.498 17.3879H14.8441C14.6479 17.3232 14.3863 17.3232 14.1901 17.2586C12.4244 16.8061 10.8549 15.9658 9.48158 14.8022C9.3508 14.6084 9.15458 14.4791 8.95845 14.2852L8.69689 14.0267C7.65045 13.0571 6.86577 11.9582 6.2772 10.7301L6.21177 10.5362C6.01555 10.0837 5.88477 9.56654 5.88477 9.04948C5.88477 8.33847 6.14633 7.62746 6.60411 7.04571C6.73489 6.91635 6.80033 6.78718 6.93111 6.65782C7.06189 6.59323 7.19267 6.46397 7.32345 6.39929L7.38889 6.3347C7.51977 6.3347 7.65045 6.27002 7.78133 6.27002H8.50067C8.69689 6.3347 8.82758 6.39929 8.95845 6.59323C9.15458 6.98103 9.93936 8.72627 10.0047 9.04948C10.0701 9.24342 10.0047 9.50196 9.87392 9.6959C9.74314 9.82517 9.6778 10.019 9.54692 10.1484C9.3508 10.3422 9.08923 10.6654 9.08923 10.6654C9.0238 10.7301 9.0238 10.8594 9.0238 10.9887C9.08923 11.1179 9.08923 11.1825 9.15458 11.2472L9.22002 11.3765C9.54692 11.9582 10.0047 12.4754 10.4625 12.9278C10.5933 13.0571 10.7895 13.1864 10.9203 13.3156C11.4435 13.8327 12.0974 14.2206 12.8167 14.5438L13.1437 14.6731C13.2092 14.7377 13.34 14.8023 13.4053 14.8023H13.4707C13.6015 14.8023 13.7323 14.7377 13.7977 14.6084C14.7133 13.5742 14.7786 13.5096 14.7786 13.5096C14.9094 13.4449 15.0402 13.3802 15.2364 13.3802C15.3019 13.3802 15.3672 13.4449 15.4326 13.4449C16.0866 13.7681 17.1329 14.2206 17.1329 14.2206Z" fill="white"/>
</svg>
